{
    "asset" : {
        "generator" : "Khronos glTF Blender I/O v1.7.33",
        "version" : "2.0"
    },
    "scene" : 0,
    "scenes" : [
        {
            "name" : "Scene",
            "nodes" : [
                0
            ]
        }
    ],
    "nodes" : [
        {
            "mesh" : 0,
            "name" : "car"
        }
    ],
    "materials" : [
        {
            "doubleSided" : true,
            "name" : "car",
            "pbrMetallicRoughness" : {
                "baseColorTexture" : {
                    "index" : 0
                },
                "metallicFactor" : 0
            }
        }
    ],
    "meshes" : [
        {
            "name" : "car",
            "primitives" : [
                {
                    "attributes" : {
                        "POSITION" : 0,
                        "NORMAL" : 1,
                        "TEXCOORD_0" : 2
                    },
                    "indices" : 3,
                    "material" : 0
                }
            ]
        }
    ],
    "textures" : [
        {
            "sampler" : 0,
            "source" : 0
        }
    ],
    "images" : [
        {
            "mimeType" : "image/jpeg",
            "name" : "car",
            "uri" : "car.jpg"
        }
    ],
    "accessors" : [
        {
            "bufferView" : 0,
            "componentType" : 5126,
            "count" : 231915,
            "max" : [
                2.849519968032837,
                3.8532121181488037,
                3.2290890216827393
            ],
            "min" : [
                -2.526129961013794,
                -0.14448100328445435,
                -2.917409896850586
            ],
            "type" : "VEC3"
        },
        {
            "bufferView" : 1,
            "componentType" : 5126,
            "count" : 231915,
            "type" : "VEC3"
        },
        {
            "bufferView" : 2,
            "componentType" : 5126,
            "count" : 231915,
            "type" : "VEC2"
        },
        {
            "bufferView" : 3,
            "componentType" : 5125,
            "count" : 1055028,
            "type" : "SCALAR"
        }
    ],
    "bufferViews" : [
        {
            "buffer" : 0,
            "byteLength" : 2782980,
            "byteOffset" : 0
        },
        {
            "buffer" : 0,
            "byteLength" : 2782980,
            "byteOffset" : 2782980
        },
        {
            "buffer" : 0,
            "byteLength" : 1855320,
            "byteOffset" : 5565960
        },
        {
            "buffer" : 0,
            "byteLength" : 4220112,
            "byteOffset" : 7421280
        }
    ],
    "samplers" : [
        {
            "magFilter" : 9729,
            "minFilter" : 9987
        }
    ],
    "buffers" : [
        {
            "byteLength" : 11641392,
            "uri" : "car.bin"
        }
    ]
}
