{
    "asset" : {
        "generator" : "Khronos glTF Blender I/O v1.7.33",
        "version" : "2.0"
    },
    "scene" : 0,
    "scenes" : [
        {
            "name" : "Scene",
            "nodes" : [
                0
            ]
        }
    ],
    "nodes" : [
        {
            "mesh" : 0,
            "name" : "Mustekala",
            "translation" : [
                0,
                0,
                1.4475418329238892
            ]
        }
    ],
    "materials" : [
        {
            "doubleSided" : true,
            "name" : "Mustekala",
            "pbrMetallicRoughness" : {
                "baseColorTexture" : {
                    "index" : 0
                },
                "metallicFactor" : 0
            }
        }
    ],
    "meshes" : [
        {
            "name" : "Mustekala",
            "primitives" : [
                {
                    "attributes" : {
                        "POSITION" : 0,
                        "NORMAL" : 1,
                        "TEXCOORD_0" : 2,
                        "COLOR_0" : 3
                    },
                    "indices" : 4,
                    "material" : 0
                }
            ]
        }
    ],
    "textures" : [
        {
            "sampler" : 0,
            "source" : 0
        }
    ],
    "images" : [
        {
            "mimeType" : "image/jpeg",
            "name" : "Mustekala",
            "uri" : "Mustekala.jpg"
        }
    ],
    "accessors" : [
        {
            "bufferView" : 0,
            "componentType" : 5126,
            "count" : 71289,
            "max" : [
                3.2894020080566406,
                4.246004104614258,
                3.861604928970337
            ],
            "min" : [
                -3.444399118423462,
                -0.2371170073747635,
                -6.468938827514648
            ],
            "type" : "VEC3"
        },
        {
            "bufferView" : 1,
            "componentType" : 5126,
            "count" : 71289,
            "type" : "VEC3"
        },
        {
            "bufferView" : 2,
            "componentType" : 5126,
            "count" : 71289,
            "type" : "VEC2"
        },
        {
            "bufferView" : 3,
            "componentType" : 5123,
            "count" : 71289,
            "normalized" : true,
            "type" : "VEC4"
        },
        {
            "bufferView" : 4,
            "componentType" : 5125,
            "count" : 324333,
            "type" : "SCALAR"
        }
    ],
    "bufferViews" : [
        {
            "buffer" : 0,
            "byteLength" : 855468,
            "byteOffset" : 0
        },
        {
            "buffer" : 0,
            "byteLength" : 855468,
            "byteOffset" : 855468
        },
        {
            "buffer" : 0,
            "byteLength" : 570312,
            "byteOffset" : 1710936
        },
        {
            "buffer" : 0,
            "byteLength" : 570312,
            "byteOffset" : 2281248
        },
        {
            "buffer" : 0,
            "byteLength" : 1297332,
            "byteOffset" : 2851560
        }
    ],
    "samplers" : [
        {
            "magFilter" : 9729,
            "minFilter" : 9987
        }
    ],
    "buffers" : [
        {
            "byteLength" : 4148892,
            "uri" : "demo.bin"
        }
    ]
}
